<mxfile host="app.diagrams.net" agent="Mozilla/5.0 (Windows NT 10.0; Win64; x64) AppleWebKit/537.36 (KHTML, like Gecko) Chrome/128.0.0.0 Safari/537.36" version="24.7.13">
  <diagram name="Page-1" id="2YBvvXClWsGukQMizWep">
    <mxGraphModel dx="1434" dy="2946" grid="1" gridSize="10" guides="1" tooltips="1" connect="1" arrows="1" fold="1" page="1" pageScale="1" pageWidth="850" pageHeight="1100" math="1" shadow="0">
      <root>
        <mxCell id="0" />
        <mxCell id="1" parent="0" />
        <mxCell id="5lkBCsI64QURFf4J93A5-30" value="user activity&lt;div&gt;API 호출&lt;/div&gt;" style="strokeWidth=2;html=1;shape=mxgraph.flowchart.terminator;whiteSpace=wrap;sketch=1;hachureGap=4;jiggle=2;curveFitting=1;fontFamily=Courier New;labelBackgroundColor=none;fontStyle=1;fillColor=#eeeeee;strokeColor=#36393d;fontSize=11;" parent="1" vertex="1">
          <mxGeometry x="59.89" y="-2170" width="141.72" height="60" as="geometry" />
        </mxCell>
        <mxCell id="5lkBCsI64QURFf4J93A5-31" value="" style="endArrow=classic;html=1;rounded=0;sketch=1;hachureGap=4;jiggle=2;curveFitting=1;fontFamily=Courier New;exitX=0.5;exitY=1;exitDx=0;exitDy=0;exitPerimeter=0;entryX=0.5;entryY=0;entryDx=0;entryDy=0;entryPerimeter=0;fillColor=#eeeeee;strokeColor=#36393d;fontSize=11;fontStyle=1" parent="1" source="5lkBCsI64QURFf4J93A5-30" target="5lkBCsI64QURFf4J93A5-32" edge="1">
          <mxGeometry width="50" height="50" relative="1" as="geometry">
            <mxPoint x="130.35999999999999" y="-2080" as="sourcePoint" />
            <mxPoint x="130.78" y="-2060" as="targetPoint" />
          </mxGeometry>
        </mxCell>
        <mxCell id="5lkBCsI64QURFf4J93A5-32" value="회원의 이전 검색어가&lt;div style=&quot;font-size: 11px;&quot;&gt;존재 하는가?&lt;/div&gt;" style="strokeWidth=2;html=1;shape=mxgraph.flowchart.decision;whiteSpace=wrap;sketch=1;hachureGap=4;jiggle=2;curveFitting=1;fontFamily=Courier New;fillColor=#eeeeee;strokeColor=#36393d;fontSize=11;fontStyle=1" parent="1" vertex="1">
          <mxGeometry x="47.31" y="-2045" width="165.67" height="105" as="geometry" />
        </mxCell>
        <mxCell id="5lkBCsI64QURFf4J93A5-33" value="" style="endArrow=classic;html=1;rounded=0;sketch=1;hachureGap=4;jiggle=2;curveFitting=1;fontFamily=Courier New;exitX=1;exitY=0.5;exitDx=0;exitDy=0;exitPerimeter=0;entryX=0;entryY=0.5;entryDx=0;entryDy=0;fillColor=#eeeeee;strokeColor=#36393d;fontSize=11;fontStyle=1" parent="1" source="5lkBCsI64QURFf4J93A5-32" target="5lkBCsI64QURFf4J93A5-59" edge="1">
          <mxGeometry width="50" height="50" relative="1" as="geometry">
            <mxPoint x="395.78" y="-1970" as="sourcePoint" />
            <mxPoint x="272.03" y="-2000" as="targetPoint" />
          </mxGeometry>
        </mxCell>
        <mxCell id="5lkBCsI64QURFf4J93A5-34" value="YES" style="text;html=1;align=center;verticalAlign=middle;whiteSpace=wrap;rounded=0;fontFamily=Courier New;fontSize=12;fillColor=none;fontStyle=1;fontColor=#3E17FF;" parent="1" vertex="1">
          <mxGeometry x="142.10999999999999" y="-1930" width="60" height="30" as="geometry" />
        </mxCell>
        <mxCell id="5lkBCsI64QURFf4J93A5-35" value="" style="endArrow=classic;html=1;rounded=0;sketch=1;hachureGap=4;jiggle=2;curveFitting=1;fontFamily=Courier New;exitX=0.5;exitY=1;exitDx=0;exitDy=0;exitPerimeter=0;entryX=0.5;entryY=0;entryDx=0;entryDy=0;entryPerimeter=0;fillColor=#eeeeee;strokeColor=#36393d;fontSize=11;fontStyle=1" parent="1" source="5lkBCsI64QURFf4J93A5-32" target="5lkBCsI64QURFf4J93A5-37" edge="1">
          <mxGeometry width="50" height="50" relative="1" as="geometry">
            <mxPoint x="205.77999999999997" y="-1995" as="sourcePoint" />
            <mxPoint x="131.03" y="-1920" as="targetPoint" />
          </mxGeometry>
        </mxCell>
        <mxCell id="5lkBCsI64QURFf4J93A5-37" value="회원이 담은 관심강좌의&lt;div style=&quot;font-size: 11px;&quot;&gt;키워드가 존재하는가?&lt;/div&gt;" style="strokeWidth=2;html=1;shape=mxgraph.flowchart.decision;whiteSpace=wrap;sketch=1;hachureGap=4;jiggle=2;curveFitting=1;fontFamily=Courier New;fillColor=#eeeeee;strokeColor=#36393d;fontSize=11;fontStyle=1" parent="1" vertex="1">
          <mxGeometry x="44.519999999999996" y="-1880" width="170.15" height="110" as="geometry" />
        </mxCell>
        <mxCell id="5lkBCsI64QURFf4J93A5-38" value="" style="endArrow=classic;html=1;rounded=0;sketch=1;hachureGap=4;jiggle=2;curveFitting=1;fontFamily=Courier New;exitX=1;exitY=0.5;exitDx=0;exitDy=0;exitPerimeter=0;entryX=0;entryY=0.5;entryDx=0;entryDy=0;entryPerimeter=0;fillColor=#eeeeee;strokeColor=#36393d;fontSize=11;fontStyle=1" parent="1" source="5lkBCsI64QURFf4J93A5-37" target="5lkBCsI64QURFf4J93A5-41" edge="1">
          <mxGeometry width="50" height="50" relative="1" as="geometry">
            <mxPoint x="463.35999999999996" y="-1937.5" as="sourcePoint" />
            <mxPoint x="273.35999999999996" y="-1843.5" as="targetPoint" />
          </mxGeometry>
        </mxCell>
        <mxCell id="5lkBCsI64QURFf4J93A5-39" value="NO" style="text;html=1;align=center;verticalAlign=middle;whiteSpace=wrap;rounded=0;fontFamily=Courier New;fontSize=12;fillColor=none;fontStyle=1;fontColor=#FF432E;" parent="1" vertex="1">
          <mxGeometry x="212.02999999999997" y="-2020" width="60" height="30" as="geometry" />
        </mxCell>
        <mxCell id="5lkBCsI64QURFf4J93A5-41" value="user activity API&amp;nbsp;&lt;span style=&quot;background-color: initial; font-size: 11px;&quot;&gt;종료&lt;/span&gt;&lt;div style=&quot;font-size: 11px;&quot;&gt;&lt;span style=&quot;background-color: initial; font-size: 11px;&quot;&gt;(return empty list)&lt;/span&gt;&lt;/div&gt;" style="strokeWidth=2;html=1;shape=mxgraph.flowchart.terminator;whiteSpace=wrap;sketch=1;hachureGap=4;jiggle=2;curveFitting=1;fontFamily=Courier New;fillColor=#eeeeee;strokeColor=#36393d;fontSize=11;fontStyle=1" parent="1" vertex="1">
          <mxGeometry x="273.35999999999996" y="-1855" width="157.5" height="60" as="geometry" />
        </mxCell>
        <mxCell id="5lkBCsI64QURFf4J93A5-42" value="&lt;div style=&quot;font-size: 11px;&quot;&gt;관심지역위도,&lt;/div&gt;&lt;div style=&quot;font-size: 11px;&quot;&gt;관심지역경도&lt;/div&gt;&lt;div style=&quot;font-size: 11px;&quot;&gt;값 추출&lt;/div&gt;" style="rounded=1;whiteSpace=wrap;html=1;absoluteArcSize=1;arcSize=14;strokeWidth=2;sketch=1;hachureGap=4;jiggle=2;curveFitting=1;fontFamily=Courier New;fillColor=#eeeeee;strokeColor=#36393d;fontSize=11;fontStyle=1" parent="1" vertex="1">
          <mxGeometry x="61.089999999999975" y="-1380" width="139.38" height="80" as="geometry" />
        </mxCell>
        <mxCell id="5lkBCsI64QURFf4J93A5-43" value="" style="endArrow=classic;html=1;rounded=0;sketch=1;hachureGap=4;jiggle=2;curveFitting=1;fontFamily=Courier New;fillColor=#eeeeee;strokeColor=#36393d;entryX=0.5;entryY=0;entryDx=0;entryDy=0;entryPerimeter=0;exitX=0.5;exitY=1;exitDx=0;exitDy=0;exitPerimeter=0;fontSize=11;fontStyle=1" parent="1" source="5lkBCsI64QURFf4J93A5-37" target="5lkBCsI64QURFf4J93A5-61" edge="1">
          <mxGeometry width="50" height="50" relative="1" as="geometry">
            <mxPoint x="130" y="-1620" as="sourcePoint" />
            <mxPoint x="130" y="-1520" as="targetPoint" />
          </mxGeometry>
        </mxCell>
        <mxCell id="5lkBCsI64QURFf4J93A5-49" value="&lt;font color=&quot;#5d00ff&quot; style=&quot;font-size: 11px;&quot;&gt;&lt;span style=&quot;font-size: 11px;&quot;&gt;Jaccard Similarity,&lt;/span&gt;&lt;/font&gt;&lt;div style=&quot;font-size: 11px;&quot;&gt;&lt;font color=&quot;#0066ff&quot; style=&quot;font-size: 11px;&quot;&gt;&lt;span style=&quot;font-size: 11px;&quot;&gt;Distance &amp;lt; 20km,&lt;/span&gt;&lt;/font&gt;&lt;/div&gt;&lt;div style=&quot;font-size: 11px;&quot;&gt;&lt;font color=&quot;#009900&quot; style=&quot;font-size: 11px;&quot;&gt;&lt;span style=&quot;font-size: 11px;&quot;&gt;not in &quot;class serial number&quot;&lt;/span&gt;&lt;/font&gt;&lt;/div&gt;" style="rounded=1;whiteSpace=wrap;html=1;absoluteArcSize=1;arcSize=14;strokeWidth=2;sketch=1;hachureGap=4;jiggle=2;curveFitting=1;fontFamily=Courier New;fillColor=#eeeeee;strokeColor=#36393d;fontSize=11;fontStyle=1" parent="1" vertex="1">
          <mxGeometry x="29.999999999999993" y="-1210" width="201.57" height="110" as="geometry" />
        </mxCell>
        <mxCell id="5lkBCsI64QURFf4J93A5-51" value="" style="endArrow=classic;html=1;rounded=0;sketch=1;hachureGap=4;jiggle=2;curveFitting=1;fontFamily=Courier New;exitX=0.5;exitY=1;exitDx=0;exitDy=0;fillColor=#eeeeee;strokeColor=#36393d;fontSize=11;fontStyle=1" parent="1" source="5lkBCsI64QURFf4J93A5-49" target="itHvO3yv1iaRsfIF7ifD-6" edge="1">
          <mxGeometry width="50" height="50" relative="1" as="geometry">
            <mxPoint x="129.18000000000006" y="-810" as="sourcePoint" />
            <mxPoint x="129.58000000000015" y="-1020" as="targetPoint" />
          </mxGeometry>
        </mxCell>
        <mxCell id="5lkBCsI64QURFf4J93A5-53" value="NO" style="text;html=1;align=center;verticalAlign=middle;whiteSpace=wrap;rounded=0;fontFamily=Courier New;fontSize=12;fillColor=none;fontStyle=1;fontColor=#FF432E;" parent="1" vertex="1">
          <mxGeometry x="212.02999999999997" y="-1855" width="60" height="30" as="geometry" />
        </mxCell>
        <mxCell id="5lkBCsI64QURFf4J93A5-55" value="YES" style="text;html=1;align=center;verticalAlign=middle;whiteSpace=wrap;rounded=0;fontFamily=Courier New;fontSize=12;fillColor=none;fontStyle=1;fontColor=#3E17FF;" parent="1" vertex="1">
          <mxGeometry x="142.11" y="-1770" width="60" height="30" as="geometry" />
        </mxCell>
        <mxCell id="5lkBCsI64QURFf4J93A5-57" value="user activity&lt;div&gt;API 종료&lt;/div&gt;" style="strokeWidth=2;html=1;shape=mxgraph.flowchart.terminator;whiteSpace=wrap;sketch=1;hachureGap=4;jiggle=2;curveFitting=1;fontFamily=Courier New;labelBackgroundColor=none;fontStyle=1;fillColor=#eeeeee;strokeColor=#36393d;fontSize=11;" parent="1" vertex="1">
          <mxGeometry x="56.36000000000001" y="-860" width="142.92" height="70" as="geometry" />
        </mxCell>
        <mxCell id="5lkBCsI64QURFf4J93A5-58" value="" style="endArrow=classic;html=1;rounded=0;sketch=1;hachureGap=4;jiggle=2;curveFitting=1;fontFamily=Courier New;exitX=0.446;exitY=1.01;exitDx=0;exitDy=0;fillColor=#eeeeee;strokeColor=#36393d;exitPerimeter=0;fontSize=11;fontStyle=1" parent="1" target="5lkBCsI64QURFf4J93A5-57" edge="1">
          <mxGeometry width="50" height="50" relative="1" as="geometry">
            <mxPoint x="129.2199999999997" y="-929.0999999999999" as="sourcePoint" />
            <mxPoint x="128.64" y="-870" as="targetPoint" />
          </mxGeometry>
        </mxCell>
        <mxCell id="5lkBCsI64QURFf4J93A5-59" value="&lt;div style=&quot;font-size: 11px;&quot;&gt;키워드&lt;/div&gt;&lt;div style=&quot;font-size: 11px;&quot;&gt;set update 하지 않음&lt;/div&gt;" style="rounded=1;whiteSpace=wrap;html=1;absoluteArcSize=1;arcSize=14;strokeWidth=2;sketch=1;hachureGap=4;jiggle=2;curveFitting=1;fontFamily=Courier New;fillColor=#eeeeee;strokeColor=#36393d;fontSize=11;fontStyle=1" parent="1" vertex="1">
          <mxGeometry x="280.84" y="-2027.5" width="139.38" height="70" as="geometry" />
        </mxCell>
        <mxCell id="5lkBCsI64QURFf4J93A5-61" value="회원의&lt;div style=&quot;font-size: 11px;&quot;&gt;수강완료한&amp;nbsp;&lt;span style=&quot;background-color: initial; font-size: 11px;&quot;&gt;강의가&lt;/span&gt;&lt;/div&gt;&lt;div style=&quot;font-size: 11px;&quot;&gt;&lt;span style=&quot;background-color: initial; font-size: 11px;&quot;&gt;존재하는가?&lt;/span&gt;&lt;/div&gt;" style="strokeWidth=2;html=1;shape=mxgraph.flowchart.decision;whiteSpace=wrap;sketch=1;hachureGap=4;jiggle=2;curveFitting=1;fontFamily=Courier New;fillColor=#eeeeee;strokeColor=#36393d;fontSize=11;fontStyle=1" parent="1" vertex="1">
          <mxGeometry x="46.12" y="-1711.8799999999999" width="168.06" height="111.25" as="geometry" />
        </mxCell>
        <mxCell id="5lkBCsI64QURFf4J93A5-62" value="" style="endArrow=classic;html=1;rounded=0;sketch=1;hachureGap=4;jiggle=2;curveFitting=1;fontFamily=Courier New;entryX=0.5;entryY=0;entryDx=0;entryDy=0;fillColor=#eeeeee;strokeColor=#36393d;fontSize=11;fontStyle=1" parent="1" source="5lkBCsI64QURFf4J93A5-61" target="5lkBCsI64QURFf4J93A5-65" edge="1">
          <mxGeometry width="50" height="50" relative="1" as="geometry">
            <mxPoint x="129.67000000000002" y="-1610" as="sourcePoint" />
            <mxPoint x="129.67000000000002" y="-1560" as="targetPoint" />
          </mxGeometry>
        </mxCell>
        <mxCell id="5lkBCsI64QURFf4J93A5-63" value="" style="endArrow=classic;html=1;rounded=0;sketch=1;hachureGap=4;jiggle=2;curveFitting=1;fontFamily=Courier New;exitX=1;exitY=0.5;exitDx=0;exitDy=0;exitPerimeter=0;entryX=0;entryY=0.5;entryDx=0;entryDy=0;fillColor=#eeeeee;strokeColor=#36393d;fontSize=11;fontStyle=1" parent="1" source="5lkBCsI64QURFf4J93A5-61" target="5lkBCsI64QURFf4J93A5-64" edge="1">
          <mxGeometry width="50" height="50" relative="1" as="geometry">
            <mxPoint x="210.78000000000003" y="-1656.67" as="sourcePoint" />
            <mxPoint x="271.78000000000003" y="-1657" as="targetPoint" />
          </mxGeometry>
        </mxCell>
        <mxCell id="5lkBCsI64QURFf4J93A5-64" value="제외 대상 강좌번호&lt;div style=&quot;font-size: 11px;&quot;&gt;set update 하지 않음&lt;/div&gt;" style="rounded=1;whiteSpace=wrap;html=1;absoluteArcSize=1;arcSize=14;strokeWidth=2;sketch=1;hachureGap=4;jiggle=2;curveFitting=1;fontFamily=Courier New;fillColor=#eeeeee;strokeColor=#36393d;fontSize=11;fontStyle=1" parent="1" vertex="1">
          <mxGeometry x="273.36000000000007" y="-1696.25" width="139.38" height="80" as="geometry" />
        </mxCell>
        <mxCell id="5lkBCsI64QURFf4J93A5-65" value="제외 대상 강좌번호&lt;div style=&quot;font-size: 11px;&quot;&gt;set update&lt;/div&gt;" style="rounded=1;whiteSpace=wrap;html=1;absoluteArcSize=1;arcSize=14;strokeWidth=2;sketch=1;hachureGap=4;jiggle=2;curveFitting=1;fontFamily=Courier New;fillColor=#eeeeee;strokeColor=#36393d;fontSize=11;fontStyle=1" parent="1" vertex="1">
          <mxGeometry x="59.900000000000034" y="-1540" width="139.38" height="80" as="geometry" />
        </mxCell>
        <mxCell id="5lkBCsI64QURFf4J93A5-66" value="NO" style="text;html=1;align=center;verticalAlign=middle;whiteSpace=wrap;rounded=0;fontFamily=Courier New;fontSize=12;fillColor=none;fontStyle=1;fontColor=#FF432E;" parent="1" vertex="1">
          <mxGeometry x="212.03000000000003" y="-1690" width="60" height="30" as="geometry" />
        </mxCell>
        <mxCell id="5lkBCsI64QURFf4J93A5-67" value="YES" style="text;html=1;align=center;verticalAlign=middle;whiteSpace=wrap;rounded=0;fontFamily=Courier New;fontSize=12;fillColor=none;fontStyle=1;fontColor=#3E17FF;" parent="1" vertex="1">
          <mxGeometry x="142.11000000000004" y="-1600.63" width="60" height="30" as="geometry" />
        </mxCell>
        <mxCell id="5lkBCsI64QURFf4J93A5-68" value="" style="endArrow=classic;html=1;rounded=0;sketch=1;hachureGap=4;jiggle=2;curveFitting=1;fontFamily=Courier New;exitX=0.5;exitY=1;exitDx=0;exitDy=0;fillColor=#eeeeee;strokeColor=#36393d;fontSize=11;fontStyle=1" parent="1" source="5lkBCsI64QURFf4J93A5-65" target="5lkBCsI64QURFf4J93A5-42" edge="1">
          <mxGeometry width="50" height="50" relative="1" as="geometry">
            <mxPoint x="120" y="-1450" as="sourcePoint" />
            <mxPoint x="130" y="-1390" as="targetPoint" />
          </mxGeometry>
        </mxCell>
        <mxCell id="5lkBCsI64QURFf4J93A5-70" value="" style="endArrow=classic;html=1;rounded=0;sketch=1;hachureGap=4;jiggle=2;curveFitting=1;fontFamily=Courier New;exitX=0.5;exitY=1;exitDx=0;exitDy=0;fillColor=#eeeeee;strokeColor=#36393d;fontSize=11;fontStyle=1" parent="1" source="5lkBCsI64QURFf4J93A5-42" target="5lkBCsI64QURFf4J93A5-49" edge="1">
          <mxGeometry width="50" height="50" relative="1" as="geometry">
            <mxPoint x="600" y="-1420" as="sourcePoint" />
            <mxPoint x="600" y="-1340" as="targetPoint" />
          </mxGeometry>
        </mxCell>
        <mxCell id="itHvO3yv1iaRsfIF7ifD-1" value="&lt;div style=&quot;font-size: 11px;&quot;&gt;&lt;span style=&quot;font-size: 11px;&quot;&gt;Jaccard Similarity 공식&lt;/span&gt;&lt;/div&gt;\[&lt;br style=&quot;font-size: 11px;&quot;&gt;J(A, B) = \frac{|A \cap B|}{|A \cup B|}&lt;br style=&quot;font-size: 11px;&quot;&gt;\]" style="rounded=1;whiteSpace=wrap;html=1;absoluteArcSize=1;arcSize=14;strokeWidth=2;sketch=1;hachureGap=4;jiggle=2;curveFitting=1;fontFamily=Courier New;fillColor=none;strokeColor=none;fontSize=11;fontStyle=1" parent="1" vertex="1">
          <mxGeometry x="639.19" y="-1190" width="150" height="80" as="geometry" />
        </mxCell>
        <mxCell id="itHvO3yv1iaRsfIF7ifD-2" value="" style="strokeWidth=2;html=1;shape=mxgraph.flowchart.annotation_2;align=left;labelPosition=right;pointerEvents=1;fontFamily=Courier New;fontSize=11;fontStyle=1" parent="1" vertex="1">
          <mxGeometry x="231.57" y="-1192.5" width="128.43" height="72.5" as="geometry" />
        </mxCell>
        <mxCell id="itHvO3yv1iaRsfIF7ifD-3" value="&lt;font style=&quot;forced-color-adjust: none; font-size: 11px; font-style: normal; font-variant-ligatures: normal; font-variant-caps: normal; letter-spacing: normal; orphans: 2; text-align: center; text-indent: 0px; text-transform: none; widows: 2; word-spacing: 0px; -webkit-text-stroke-width: 0px; white-space: normal; background-color: rgb(251, 251, 251); text-decoration-thickness: initial; text-decoration-style: initial; text-decoration-color: initial;&quot; color=&quot;#5d00ff&quot;&gt;&lt;span style=&quot;forced-color-adjust: none; font-size: 11px;&quot;&gt;이전검색어,관심강좌키워드를 강좌명,관심키워드,학습내용에서&lt;/span&gt;&lt;/font&gt;&lt;div style=&quot;font-size: 11px;&quot;&gt;&lt;font style=&quot;forced-color-adjust: none; font-size: 11px; font-style: normal; font-variant-ligatures: normal; font-variant-caps: normal; letter-spacing: normal; orphans: 2; text-align: center; text-indent: 0px; text-transform: none; widows: 2; word-spacing: 0px; -webkit-text-stroke-width: 0px; white-space: normal; background-color: rgb(251, 251, 251); text-decoration-thickness: initial; text-decoration-style: initial; text-decoration-color: initial;&quot; color=&quot;#5d00ff&quot;&gt;&lt;span style=&quot;forced-color-adjust: none; font-size: 11px;&quot;&gt;각각 Jaccard 유사도 비교 계산 하여&lt;/span&gt;&lt;/font&gt;&lt;div style=&quot;font-size: 11px;&quot;&gt;&lt;font color=&quot;#0066ff&quot; style=&quot;text-align: center; font-size: 11px;&quot;&gt;&lt;span style=&quot;font-size: 11px;&quot;&gt;관심지역 20km 반경 내 강좌를 포함,&lt;/span&gt;&lt;/font&gt;&lt;/div&gt;&lt;div style=&quot;font-size: 11px;&quot;&gt;&lt;span style=&quot;color: rgb(0, 153, 0); background-color: initial; text-align: center; font-size: 11px;&quot;&gt;수강완료한 강의는 제외 한다.&lt;/span&gt;&lt;/div&gt;&lt;/div&gt;" style="text;whiteSpace=wrap;html=1;fontFamily=Courier New;fontSize=11;fontStyle=1" parent="1" vertex="1">
          <mxGeometry x="300" y="-1185" width="339.19" height="70" as="geometry" />
        </mxCell>
        <mxCell id="itHvO3yv1iaRsfIF7ifD-6" value="&lt;span style=&quot;font-size: 11px;&quot;&gt;추천 강좌번호&lt;/span&gt;&lt;div style=&quot;font-size: 11px;&quot;&gt;최대 12개&amp;nbsp;&lt;span style=&quot;background-color: initial; font-size: 11px;&quot;&gt;List Return&lt;/span&gt;&lt;/div&gt;" style="shape=parallelogram;html=1;strokeWidth=2;perimeter=parallelogramPerimeter;whiteSpace=wrap;rounded=1;arcSize=12;size=0.23;fillColor=#eeeeee;strokeColor=#36393d;sketch=1;curveFitting=1;jiggle=2;fontFamily=Courier New;fontSize=11;fontStyle=1" parent="1" vertex="1">
          <mxGeometry x="39.06999999999999" y="-1020" width="180" height="90" as="geometry" />
        </mxCell>
        <mxCell id="dBCWOENH4xH4wtgTB2ES-1" value="" style="verticalLabelPosition=bottom;verticalAlign=top;html=1;shape=mxgraph.basic.patternFillRect;fillStyle=diag;step=5;fillStrokeWidth=0.2;fillStrokeColor=#dddddd;sketch=1;hachureGap=4;jiggle=2;curveFitting=1;fontFamily=Courier New;fontSize=11;fontStyle=0" vertex="1" parent="1">
          <mxGeometry x="540" y="-2190" width="300" height="380" as="geometry" />
        </mxCell>
        <mxCell id="dBCWOENH4xH4wtgTB2ES-2" value="시작/끝" style="strokeWidth=2;html=1;shape=mxgraph.flowchart.terminator;whiteSpace=wrap;sketch=1;hachureGap=4;jiggle=2;curveFitting=1;fontFamily=Courier New;labelBackgroundColor=none;fontStyle=0;fillColor=#eeeeee;strokeColor=#36393d;fontSize=11;" vertex="1" parent="1">
          <mxGeometry x="567.3499999999999" y="-2160" width="88.44" height="40" as="geometry" />
        </mxCell>
        <mxCell id="dBCWOENH4xH4wtgTB2ES-3" value="&lt;font style=&quot;font-size: 11px;&quot;&gt;프로세스의 시작과 끝&lt;/font&gt;" style="text;html=1;align=center;verticalAlign=middle;whiteSpace=wrap;rounded=0;fontFamily=Courier New;fontSize=11;fontStyle=0" vertex="1" parent="1">
          <mxGeometry x="680" y="-2155" width="130" height="30" as="geometry" />
        </mxCell>
        <mxCell id="dBCWOENH4xH4wtgTB2ES-4" value="&lt;div style=&quot;font-size: 11px;&quot;&gt;동작&lt;/div&gt;" style="rounded=1;whiteSpace=wrap;html=1;absoluteArcSize=1;arcSize=14;strokeWidth=2;sketch=1;hachureGap=4;jiggle=2;curveFitting=1;fontFamily=Courier New;fillColor=#eeeeee;strokeColor=#36393d;fontSize=11;fontStyle=0" vertex="1" parent="1">
          <mxGeometry x="572.5" y="-2097.5" width="78.13" height="37.5" as="geometry" />
        </mxCell>
        <mxCell id="dBCWOENH4xH4wtgTB2ES-5" value="&lt;font style=&quot;font-size: 11px;&quot;&gt;각종 연산 처리&lt;/font&gt;" style="text;html=1;align=center;verticalAlign=middle;whiteSpace=wrap;rounded=0;fontFamily=Courier New;fontSize=11;fontStyle=0" vertex="1" parent="1">
          <mxGeometry x="677.35" y="-2097.5" width="130" height="30" as="geometry" />
        </mxCell>
        <mxCell id="dBCWOENH4xH4wtgTB2ES-6" value="입력/출력" style="shape=parallelogram;html=1;strokeWidth=2;perimeter=parallelogramPerimeter;whiteSpace=wrap;rounded=1;arcSize=12;size=0.23;fillColor=#eeeeee;strokeColor=#36393d;sketch=1;curveFitting=1;jiggle=2;fontFamily=Courier New;fontSize=11;fontStyle=0" vertex="1" parent="1">
          <mxGeometry x="562.36" y="-2036.25" width="98.43" height="36.25" as="geometry" />
        </mxCell>
        <mxCell id="dBCWOENH4xH4wtgTB2ES-7" value="&lt;font style=&quot;font-size: 11px;&quot;&gt;데이터의 입력과 출력 표시&lt;/font&gt;" style="text;html=1;align=center;verticalAlign=middle;whiteSpace=wrap;rounded=0;fontFamily=Courier New;fontSize=11;fontStyle=0" vertex="1" parent="1">
          <mxGeometry x="665" y="-2036.25" width="160" height="30" as="geometry" />
        </mxCell>
        <mxCell id="dBCWOENH4xH4wtgTB2ES-8" value="분기점" style="strokeWidth=2;html=1;shape=mxgraph.flowchart.decision;whiteSpace=wrap;sketch=1;hachureGap=4;jiggle=2;curveFitting=1;fontFamily=Courier New;fillColor=#eeeeee;strokeColor=#36393d;fontSize=11;fontStyle=0" vertex="1" parent="1">
          <mxGeometry x="569.86" y="-1990" width="83.43" height="67.5" as="geometry" />
        </mxCell>
        <mxCell id="dBCWOENH4xH4wtgTB2ES-9" value="&lt;font style=&quot;font-size: 11px;&quot;&gt;판단 및 분기&lt;/font&gt;" style="text;html=1;align=center;verticalAlign=middle;whiteSpace=wrap;rounded=0;fontFamily=Courier New;fontSize=11;fontStyle=0" vertex="1" parent="1">
          <mxGeometry x="665" y="-1971.25" width="160" height="30" as="geometry" />
        </mxCell>
        <mxCell id="dBCWOENH4xH4wtgTB2ES-10" value="" style="endArrow=classic;html=1;rounded=0;sketch=1;hachureGap=4;jiggle=2;curveFitting=1;fontFamily=Courier New;exitX=0.5;exitY=1;exitDx=0;exitDy=0;exitPerimeter=0;fillColor=#eeeeee;strokeColor=#36393d;fontSize=11;fontStyle=0" edge="1" parent="1">
          <mxGeometry width="50" height="50" relative="1" as="geometry">
            <mxPoint x="573.5" y="-1900" as="sourcePoint" />
            <mxPoint x="650" y="-1900" as="targetPoint" />
          </mxGeometry>
        </mxCell>
        <mxCell id="dBCWOENH4xH4wtgTB2ES-11" value="&lt;font style=&quot;font-size: 11px;&quot;&gt;흐름의 방향 표시&lt;/font&gt;" style="text;html=1;align=center;verticalAlign=middle;whiteSpace=wrap;rounded=0;fontFamily=Courier New;fontSize=11;fontStyle=0" vertex="1" parent="1">
          <mxGeometry x="665" y="-1910" width="160" height="30" as="geometry" />
        </mxCell>
        <mxCell id="dBCWOENH4xH4wtgTB2ES-12" value="" style="strokeWidth=2;html=1;shape=mxgraph.flowchart.annotation_2;align=left;labelPosition=right;pointerEvents=1;fontFamily=Courier New;fontSize=11;fontStyle=0" vertex="1" parent="1">
          <mxGeometry x="582.83" y="-1870" width="47.5" height="40" as="geometry" />
        </mxCell>
        <mxCell id="dBCWOENH4xH4wtgTB2ES-13" value="&lt;font style=&quot;font-size: 11px;&quot;&gt;주석&lt;/font&gt;" style="text;html=1;align=center;verticalAlign=middle;whiteSpace=wrap;rounded=0;fontFamily=Courier New;fontSize=11;fontStyle=0" vertex="1" parent="1">
          <mxGeometry x="665" y="-1865" width="160" height="30" as="geometry" />
        </mxCell>
      </root>
    </mxGraphModel>
  </diagram>
</mxfile>
